<svg width="13" height="13" viewBox="0 0 13 13" fill="none" xmlns="http://www.w3.org/2000/svg">
<path d="M1.70711 0.292893C1.31658 -0.0976311 0.683418 -0.0976311 0.292893 0.292893C-0.0976311 0.683418 -0.0976311 1.31658 0.292893 1.70711L1 1L1.70711 0.292893ZM12 13C12.5523 13 13 12.5523 13 12L13 3C13 2.44772 12.5523 2 12 2C11.4477 2 11 2.44772 11 3L11 11L3 11C2.44772 11 2 11.4477 2 12C2 12.5523 2.44772 13 3 13L12 13ZM1 1L0.292893 1.70711L11.2929 12.7071L12 12L12.7071 11.2929L1.70711 0.292893L1 1Z" fill="#EC1C24"/>
</svg>
