<svg width="209" height="30" viewBox="0 0 209 30" fill="none" xmlns="http://www.w3.org/2000/svg">
<g clip-path="url(#clip0_652_1423)">
<path fill-rule="evenodd" clip-rule="evenodd" d="M123.345 19.6529C123.345 17.3768 124.982 15.906 127.76 15.7177L131.154 15.48V14.7679C131.154 13.6061 130.562 12.7999 128.971 12.7999C127.523 12.7999 126.788 13.4388 126.717 14.5768H123.845C123.845 12.2294 125.957 10.5238 129.02 10.5238C132.083 10.5238 134.052 11.9699 134.052 15.1711V20.1264C134.052 20.6949 134.313 20.9098 134.812 20.9098C134.93 20.9098 135.073 20.886 135.191 20.8632V23.0442C134.812 23.2572 134.385 23.377 133.719 23.377C132.413 23.377 131.654 22.643 131.464 21.5753C130.896 22.5955 129.59 23.5186 127.809 23.5186C124.865 23.5167 123.345 21.6675 123.345 19.6529ZM131.153 18.2068V17.6611L128.306 17.874C127.095 17.9691 126.241 18.4198 126.241 19.5331C126.241 20.481 126.976 21.1456 128.211 21.1456C130.228 21.1456 131.154 19.8183 131.154 18.2058L131.153 18.2068ZM137.94 22.3083C136.516 21.0752 135.828 19.0606 135.828 17.0459C135.828 15.0313 136.469 13.0861 137.68 11.9261C138.606 11.0011 139.863 10.5266 141.382 10.5266C143.185 10.5266 144.182 11.3091 144.633 12.044V6.02197H147.6V23.1859H145.013L144.846 21.4308C144.349 22.8303 142.853 23.5167 141.311 23.5167C139.956 23.5186 138.795 23.0442 137.939 22.3093L137.94 22.3083ZM143.804 20.1749C144.539 19.3924 144.777 18.3028 144.777 16.9984C144.777 15.7653 144.539 14.7223 143.85 13.8932C143.353 13.3009 142.687 13.0166 141.809 13.0166C140.931 13.0166 140.243 13.3247 139.744 13.9417C139.08 14.7717 138.842 15.7919 138.842 17.0003C138.842 18.2087 139.08 19.3715 139.815 20.153C140.291 20.6987 140.93 21.0068 141.81 21.0068C142.688 21.0049 143.353 20.673 143.804 20.1758V20.1749ZM151.422 11.2378L154.436 20.0332L157.284 11.2378H160.417L155.954 23.5652H152.798L148.217 11.2378H151.421H151.422ZM160.251 19.6529C160.251 17.3768 161.888 15.906 164.666 15.7177L168.059 15.48V14.7679C168.059 13.6061 167.467 12.7999 165.876 12.7999C164.428 12.7999 163.693 13.4388 163.622 14.5768H160.749C160.749 12.2294 162.863 10.5238 165.925 10.5238C168.987 10.5238 170.958 11.9699 170.958 15.1711V20.1264C170.958 20.6949 171.218 20.9098 171.717 20.9098C171.835 20.9098 171.979 20.886 172.095 20.8632V23.0442C171.717 23.2572 171.289 23.377 170.624 23.377C169.319 23.377 168.559 22.643 168.369 21.5753C167.801 22.5955 166.494 23.5186 164.715 23.5186C161.77 23.5167 160.251 21.6675 160.251 19.6529ZM168.059 18.2068V17.6611L165.212 17.874C164.001 17.9691 163.146 18.4198 163.146 19.5331C163.146 20.481 163.881 21.1456 165.117 21.1456C167.134 21.1456 168.059 19.8183 168.059 18.2058V18.2068ZM176.01 11.2378L176.152 12.8503C176.888 11.523 178.407 10.9069 179.832 10.9069C182.465 10.9069 184.079 12.7324 184.079 15.3165V23.5662H181.112V16.002C181.112 14.5559 180.448 13.6546 179.047 13.6546C177.195 13.6546 176.388 15.2899 176.388 17.2104V23.5633H173.421V11.2378H176.009H176.01ZM186.976 21.5725C186.026 20.4106 185.553 18.8219 185.553 17.0203C185.553 15.2186 186.028 13.6061 187.001 12.4681C187.879 11.4251 189.327 10.5247 191.391 10.5247C194.406 10.5247 196.613 12.3749 196.731 15.172H193.859C193.741 13.8448 192.885 13.0861 191.461 13.0861C190.488 13.0861 189.847 13.4407 189.445 13.8913C188.71 14.7213 188.567 15.8594 188.567 17.0212C188.567 18.183 188.71 19.3439 189.445 20.1264C189.895 20.577 190.487 20.9564 191.461 20.9564C192.885 20.9564 193.74 20.1511 193.859 18.8932H196.731C196.613 21.6438 194.286 23.5167 191.391 23.5167C189.326 23.5167 187.832 22.6383 186.976 21.5715V21.5725ZM199.388 22.0003C198.132 20.7909 197.466 19.0368 197.466 17.0222C197.466 15.0075 198.13 13.3 199.363 12.0906C200.314 11.1655 201.596 10.5266 203.303 10.5266C206.84 10.5266 209 13.0157 209 16.6913C209 17.1885 208.976 17.5917 208.929 17.8759H200.433C200.433 19.5825 201.526 21.1703 203.399 21.1703C204.753 21.1703 205.68 20.4829 205.892 19.5112H208.669C208.289 21.929 206.13 23.5177 203.447 23.5177C201.669 23.5177 200.409 22.9254 199.389 22.0003H199.388ZM203.375 12.8721C201.76 12.8721 200.575 14.0102 200.456 15.7158H206.033C206.033 13.8923 204.989 12.8721 203.375 12.8721ZM100.567 23.5329H95.5154C95.095 22.7447 95.0674 22.0611 95.0674 20.2756C95.0674 17.8854 94.041 17.3074 92.6208 17.3074H86.8592V23.5605H82.1773V6.5059H94.569C99.3042 6.5059 100.093 9.39714 100.093 11.1304C100.093 13.2058 99.2509 14.5455 97.3313 15.229V15.2823C99.3565 15.597 99.6733 18.1735 99.6733 19.8278C99.6733 20.6531 99.7494 22.5917 100.523 23.4825L100.567 23.532V23.5329ZM86.8098 14.0206H92.9395C93.9659 14.0206 95.1483 13.4426 95.1483 11.8396C95.1483 10.1577 93.807 9.71184 92.7017 9.71184H86.8098V14.0197V14.0206ZM34.9609 6.5059H39.5906V23.532H34.9609V6.5059ZM54.348 11.4203C54.0588 9.21364 51.9271 8.97596 50.0865 8.97596C48.2458 8.97596 46.9303 9.84304 46.9303 10.9725C46.9303 11.8653 47.6932 12.3911 48.8775 12.5755L54.6648 13.4958C57.7696 13.995 60.1363 15.1501 60.1363 18.2515C60.1363 21.3528 57.9789 23.9788 51.2984 23.9788C47.1415 23.9788 41.7489 23.4521 41.6976 18.145H46.9046C46.9579 20.4838 49.2979 20.8775 51.2974 20.8775C53.4805 20.8775 54.9549 20.2462 54.9549 18.7497C54.9549 17.4357 53.9028 17.0954 52.0603 16.8044L47.8264 16.175C44.8804 15.7282 42.0134 14.8354 42.0134 11.3661C42.0115 7.58216 45.1163 6.03338 50.4556 6.03338C53.9542 6.03338 59.1631 6.63711 59.478 11.446H54.349V11.4203H54.348ZM74.4723 20.0123H66.6598L65.2653 23.5072H60.2666L67.7632 6.48119H73.3403L80.837 23.5072H75.8382L74.4713 20.0123H74.4723ZM70.5779 10.1596L67.8955 16.9119H73.2347L70.5779 10.1596Z" fill="black"/>
<path fill-rule="evenodd" clip-rule="evenodd" d="M115.95 20.0417H108.131L106.735 23.5395H101.731L109.236 6.49731H114.819L122.323 23.5395H117.319L115.95 20.0417ZM112.052 10.1796L109.367 16.9385H114.712L112.052 10.1796Z" fill="black"/>
<mask id="mask0_652_1423" style="mask-type:luminance" maskUnits="userSpaceOnUse" x="0" y="0" width="31" height="30">
<path d="M30.0152 0H0V30H30.0152V0Z" fill="white"/>
</mask>
<g mask="url(#mask0_652_1423)">
<path fill-rule="evenodd" clip-rule="evenodd" d="M28.3929 11.0734L18.9338 1.62104C16.7707 -0.54002 13.2454 -0.54002 11.0747 1.62104L1.62233 11.081C-0.540776 13.2421 -0.540776 16.7656 1.62233 18.9266L11.0823 28.379C13.2454 30.54 16.7707 30.54 18.9338 28.379L28.3938 18.919C30.5569 16.7579 30.5569 13.2345 28.3938 11.0734H28.3929ZM7.45909 17.2134L12.7926 22.5442C14.0178 23.7602 15.9983 23.7602 17.2225 22.5442L22.5561 17.2134C23.7727 15.9888 23.7727 14.0008 22.5561 12.7857L17.2225 7.45485C15.9974 6.23884 14.0083 6.23884 12.7926 7.45485L7.45909 12.7857C6.24246 14.0103 6.24246 15.9983 7.45909 17.2134Z" fill="url(#paint0_radial_652_1423)"/>
</g>
</g>
<defs>
<radialGradient id="paint0_radial_652_1423" cx="0" cy="0" r="1" gradientUnits="userSpaceOnUse" gradientTransform="translate(15.0679 15.1554) scale(15.0076 15.0076)">
<stop stop-color="#00FF95"/>
<stop offset="0.25" stop-color="#00FF95"/>
<stop offset="0.5" stop-color="#1DB45F"/>
<stop offset="0.75" stop-color="#00FF67"/>
<stop offset="1" stop-color="#1DB45F"/>
</radialGradient>
<clipPath id="clip0_652_1423">
<rect width="209" height="30" fill="white"/>
</clipPath>
</defs>
</svg>
